<svg width="1778" height="1778" viewBox="0 0 1778 1778" fill="none" xmlns="http://www.w3.org/2000/svg">
<g clip-path="url(#clip0_307_32)">
<rect width="1778" height="1778" rx="50" fill="#002E31"/>
<path d="M1126 418H1344V1747H1126V418Z" fill="white"/>
<rect x="1753" y="418" width="218" height="1036" transform="rotate(90 1753 418)" fill="white"/>
<path d="M758.53 656.227C653.296 621.373 540.089 618.507 433.226 647.991C326.362 677.476 230.642 737.987 158.169 821.873C85.6959 905.759 39.7255 1009.25 26.071 1119.26C12.4164 1229.28 31.6909 1340.87 81.4571 1439.93C131.223 1538.98 209.246 1621.06 305.659 1675.77C402.071 1730.49 512.544 1755.39 623.106 1747.32C733.668 1739.25 839.355 1698.57 926.8 1630.44C1014.25 1562.3 1079.52 1469.76 1114.38 1364.53L582.303 1188.3L758.53 656.227Z" fill="white"/>
<circle cx="581.5" cy="1187.5" r="307.5" fill="#002E31"/>
</g>
<defs>
<clipPath id="clip0_307_32">
<rect width="1778" height="1778" fill="white"/>
</clipPath>
</defs>
</svg>
